<svg width="258" height="74" viewBox="0 0 258 74" fill="none" xmlns="http://www.w3.org/2000/svg">
<path d="M234.69 1.63234C241.424 1.63234 246.992 3.57485 251.395 7.45988C255.798 11.3449 258 16.4602 258 22.8705C258 29.2161 255.734 34.3961 251.331 38.4106C246.928 42.4252 241.359 44.3677 234.69 44.3677H219.797V1.63234H234.69ZM234.625 11.7334H230.934V34.3313H234.625C238.122 34.3313 240.971 33.3601 243.237 31.2881C245.438 29.2161 246.604 26.4318 246.604 22.8705C246.604 19.2445 245.438 16.525 243.237 14.5824C241.035 12.7047 238.122 11.7334 234.625 11.7334Z" fill="white"/>
<path d="M211.269 1.63234V44.3677H200.132V1.63234H211.269Z" fill="white"/>
<path d="M195.709 44.3677H182.5L166.247 23.0648V44.3677H155.11V1.63234H166.247V20.9927L180.363 1.63234H193.313L178.615 21.964L195.709 44.3677Z" fill="white"/>
<path d="M146.576 1.63234V44.3677H135.439V27.2735H119.834V44.3677H108.697V1.63234H119.834V17.2372H135.439V1.63234H146.576Z" fill="white"/>
<path d="M82.8193 0.855392C87.0928 0.855392 90.9131 1.8914 94.3449 3.89867C97.7119 5.90593 100.431 8.69021 102.374 12.3162L93.8916 18.079C91.1073 13.417 87.4166 11.086 82.7545 11.086C79.3227 11.086 76.5385 12.1867 74.337 14.3883C72.1354 16.5898 71.0994 19.5035 71.0994 23.0648C71.0994 26.6908 72.1354 29.5399 74.337 31.6766C76.4737 33.8782 79.258 34.9142 82.7545 34.9142C87.4166 34.9142 91.1073 32.5831 93.8916 27.9211L102.374 33.6839C100.431 37.3099 97.7119 40.159 94.3449 42.1662C90.9131 44.1735 87.0281 45.1447 82.7545 45.1447C76.2795 45.1447 70.7757 43.0727 66.3726 38.7992C61.9049 34.5904 59.7033 29.3456 59.7033 23.0001C59.7033 16.784 61.9049 11.5392 66.3726 7.2657C70.8404 2.99216 76.3442 0.855392 82.8193 0.855392Z" fill="white"/>
<path d="M53.3766 1.63234V44.3677H42.2395V1.63234H53.3766Z" fill="white"/>
<path d="M37.8143 44.3677H25.3822L15.7344 31.0938H11.1371V44.3677H0V1.63234H16.7704C21.5619 1.63234 25.5117 2.9921 28.6197 5.64687C31.7278 8.36639 33.2818 11.9277 33.2818 16.3307C33.2818 21.7697 31.0155 25.7843 26.5477 28.5038L37.8143 44.3677ZM11.1371 11.3449V21.3812H16.8351C18.3891 21.3812 19.6194 20.928 20.5259 20.0215C21.4324 19.115 21.9504 17.8847 21.9504 16.3307C21.9504 14.8414 21.4324 13.6112 20.5259 12.7047C19.6194 11.7982 18.3891 11.3449 16.8351 11.3449H11.1371Z" fill="white"/>
<path d="M13.8724 68.6533L15.6524 62.2606H17.0146L14.5999 70H13.0675L11.3493 63.7466L9.63118 70H8.09878L5.66861 62.2606H7.04623L8.90368 68.6224L10.6218 62.2606H12.0768L13.8724 68.6533ZM21.5127 70.1548C19.5934 70.1548 17.9371 68.8081 17.9371 66.1148C17.9371 63.4215 19.6707 62.1058 21.4818 62.1058C23.463 62.1058 24.7168 63.5299 24.7168 65.5421V66.316H19.2528C19.3147 68.2199 20.4447 69.0403 21.4972 69.0403H21.6211C22.4724 69.0403 23.1844 68.6224 23.3857 67.7401H24.7014C24.4073 69.288 23.107 70.1548 21.5127 70.1548ZM19.3147 65.248H23.4011C23.3392 63.9014 22.5498 63.2203 21.5437 63.2203H21.4198C20.553 63.2203 19.5779 63.7156 19.3147 65.248ZM30.5396 70.1548C29.4871 70.1548 28.3881 69.613 27.9856 68.87V70H26.6699V59.1649H27.9856V63.3906C28.3881 62.6476 29.3787 62.1058 30.4468 62.1058C32.3971 62.1058 33.914 63.6073 33.914 66.1303C33.914 68.6533 32.5054 70.1548 30.5396 70.1548ZM30.261 69.0403H30.3694C31.7005 69.0403 32.5983 67.9258 32.5983 66.1303C32.5983 64.3348 31.7005 63.2203 30.3694 63.2203H30.261C28.9763 63.2203 27.9856 64.3348 27.9856 66.1303C27.9856 67.9258 28.9763 69.0403 30.261 69.0403ZM38.3688 70.1548C36.341 70.1548 35.2575 69.0868 35.2266 67.6317H36.5423C36.6351 68.6069 37.3936 69.0403 38.3533 69.0403H38.4926C39.3904 69.0403 40.0405 68.6069 40.0405 67.9104C40.0405 67.3841 39.7464 67.0281 38.8796 66.8578L37.7496 66.6256C36.5268 66.378 35.5361 65.7743 35.5361 64.4586C35.5361 62.9262 36.8983 62.1058 38.4152 62.1058C40.412 62.1058 41.4026 63.2358 41.4336 64.6289H40.1179C40.025 63.8859 39.5142 63.2203 38.4926 63.2203H38.3533C37.4245 63.2203 36.8518 63.7311 36.8518 64.3193C36.8518 64.9075 37.2078 65.2171 38.0437 65.3873L39.2665 65.6505C40.412 65.8826 41.3562 66.4708 41.3562 67.833C41.3562 69.257 40.1333 70.1548 38.3688 70.1548ZM44.7209 60.8675H43.2504V59.2887H44.7209V60.8675ZM44.6435 70H43.3278V62.2606H44.6435V70ZM51.2418 70H49.4308C48.3782 70 47.8055 69.4582 47.8055 68.4057V63.3906H46.0719V62.2606H47.8055V59.753H49.1212V62.2606H51.0096V63.3906H49.1212V68.2199C49.1212 68.6843 49.276 68.8391 49.7403 68.8391H51.2418V70ZM55.8412 70.1548C53.9218 70.1548 52.2656 68.8081 52.2656 66.1148C52.2656 63.4215 53.9992 62.1058 55.8102 62.1058C57.7915 62.1058 59.0453 63.5299 59.0453 65.5421V66.316H53.5813C53.6432 68.2199 54.7731 69.0403 55.8257 69.0403H55.9495C56.8008 69.0403 57.5129 68.6224 57.7141 67.7401H59.0298C58.7357 69.288 57.4355 70.1548 55.8412 70.1548ZM53.6432 65.248H57.7296C57.6677 63.9014 56.8782 63.2203 55.8721 63.2203H55.7483C54.8815 63.2203 53.9063 63.7156 53.6432 65.248ZM63.5369 70.1548C61.5092 70.1548 60.4257 69.0868 60.3947 67.6317H61.7104C61.8033 68.6069 62.5617 69.0403 63.5214 69.0403H63.6607C64.5585 69.0403 65.2086 68.6069 65.2086 67.9104C65.2086 67.3841 64.9145 67.0281 64.0477 66.8578L62.9177 66.6256C61.6949 66.378 60.7043 65.7743 60.7043 64.4586C60.7043 62.9262 62.0664 62.1058 63.5833 62.1058C65.5801 62.1058 66.5707 63.2358 66.6017 64.6289H65.286C65.1931 63.8859 64.6823 63.2203 63.6607 63.2203H63.5214C62.5927 63.2203 62.02 63.7311 62.02 64.3193C62.02 64.9075 62.376 65.2171 63.2118 65.3873L64.4347 65.6505C65.5801 65.8826 66.5243 66.4708 66.5243 67.833C66.5243 69.257 65.3015 70.1548 63.5369 70.1548ZM73.6208 70H72.3051V62.2606H73.6208V63.3906C74.0852 62.6631 74.8901 62.1058 76.0201 62.1058C77.1345 62.1058 78.0633 62.5857 78.5276 63.6073C79.1158 62.5392 80.1065 62.1058 81.1435 62.1058C82.8307 62.1058 83.8833 63.1584 83.8833 64.861V70H82.5676V65.1706C82.5676 63.9323 82.0568 63.2203 80.9268 63.2203H80.8185C79.673 63.2203 78.7443 64.2883 78.7443 65.8207V70H77.4286V65.1706C77.4286 63.9323 76.9333 63.2203 75.8034 63.2203H75.6795C74.5341 63.2203 73.6208 64.2883 73.6208 65.8207V70ZM88.2554 70.1548C86.8159 70.1548 85.7324 69.1796 85.7324 67.8639C85.7324 66.1148 87.2648 65.5885 88.5031 65.4957L90.732 65.3099V65.0468C90.732 63.8859 90.0819 63.2203 89.0139 63.2203H88.9055C88.0387 63.2203 87.2957 63.6382 87.2029 64.4741H85.8872C85.98 63.0655 87.2493 62.1058 88.9675 62.1058C91.0107 62.1058 92.0477 63.468 92.0477 65.0468V68.2973C92.0477 68.7617 92.0477 69.4582 92.1251 70H90.8868C90.8249 69.6285 90.8094 68.9474 90.8094 68.7617C90.4999 69.4582 89.5247 70.1548 88.2554 70.1548ZM88.3947 69.0403H88.534C89.5247 69.0403 90.732 68.2199 90.732 67.2138V66.347L88.7043 66.5018C87.7291 66.5792 87.0481 67.0436 87.0481 67.802C87.0481 68.514 87.6208 69.0403 88.3947 69.0403ZM97.2694 70.1548C95.3036 70.1548 93.895 68.6533 93.895 66.1303C93.895 63.6073 95.412 62.1058 97.3778 62.1058C98.4303 62.1058 99.421 62.6476 99.8389 63.3906V59.1649H101.155V70H99.8389V68.87C99.421 69.613 98.322 70.1548 97.2694 70.1548ZM97.4397 69.0403H97.548C98.8482 69.0403 99.8389 67.9258 99.8389 66.1303C99.8389 64.3348 98.8482 63.2203 97.548 63.2203H97.4397C96.1085 63.2203 95.2262 64.3348 95.2262 66.1303C95.2262 67.9258 96.1085 69.0403 97.4397 69.0403ZM106.631 70.1548C104.712 70.1548 103.055 68.8081 103.055 66.1148C103.055 63.4215 104.789 62.1058 106.6 62.1058C108.581 62.1058 109.835 63.5299 109.835 65.5421V66.316H104.371C104.433 68.2199 105.563 69.0403 106.615 69.0403H106.739C107.591 69.0403 108.303 68.6224 108.504 67.7401H109.82C109.525 69.288 108.225 70.1548 106.631 70.1548ZM104.433 65.248H108.519C108.457 63.9014 107.668 63.2203 106.662 63.2203H106.538C105.671 63.2203 104.696 63.7156 104.433 65.248ZM117.705 70H116.389V63.3906H114.655V62.2606H116.389V60.7127C116.389 59.6602 116.9 59.1649 117.968 59.1649H120.057V60.3103H118.324C117.859 60.3103 117.705 60.4651 117.705 60.9294V62.2606H119.67V63.3906H117.705V70ZM124.137 70.1548C122.078 70.1548 120.484 68.5295 120.484 66.1303C120.484 63.7311 122.078 62.1058 124.137 62.1058C126.195 62.1058 127.805 63.7311 127.805 66.1303C127.805 68.5295 126.195 70.1548 124.137 70.1548ZM124.075 69.0403H124.214C125.514 69.0403 126.489 67.9723 126.489 66.1303C126.489 64.2883 125.514 63.2203 124.214 63.2203H124.075C122.775 63.2203 121.799 64.2883 121.799 66.1303C121.799 67.9723 122.775 69.0403 124.075 69.0403ZM131.031 70H129.716V62.2606H130.954V63.9788C131.279 62.8024 132.223 62.1832 133.245 62.1832H133.941V63.437H133.322C131.898 63.437 131.031 64.4586 131.031 66.1303V70ZM142.746 70.1548C141.693 70.1548 140.594 69.613 140.192 68.87V70H138.876V59.1649H140.192V63.3906C140.594 62.6476 141.585 62.1058 142.653 62.1058C144.603 62.1058 146.12 63.6073 146.12 66.1303C146.12 68.6533 144.712 70.1548 142.746 70.1548ZM142.467 69.0403H142.575C143.907 69.0403 144.804 67.9258 144.804 66.1303C144.804 64.3348 143.907 63.2203 142.575 63.2203H142.467C141.182 63.2203 140.192 64.3348 140.192 66.1303C140.192 67.9258 141.182 69.0403 142.467 69.0403ZM150.606 70.1548C148.872 70.1548 147.959 68.9939 147.959 67.3686V62.2606H149.275V67.059C149.275 68.3747 149.816 69.0403 150.931 69.0403H151.07C152.107 69.0403 153.113 68.0652 153.113 66.4399V62.2606H154.429V70H153.113V68.5295C152.788 69.4428 151.921 70.1548 150.606 70.1548ZM159.357 70.1548C157.329 70.1548 156.246 69.0868 156.215 67.6317H157.531C157.624 68.6069 158.382 69.0403 159.342 69.0403H159.481C160.379 69.0403 161.029 68.6069 161.029 67.9104C161.029 67.3841 160.735 67.0281 159.868 66.8578L158.738 66.6256C157.515 66.378 156.525 65.7743 156.525 64.4586C156.525 62.9262 157.887 62.1058 159.404 62.1058C161.4 62.1058 162.391 63.2358 162.422 64.6289H161.106C161.013 63.8859 160.503 63.2203 159.481 63.2203H159.342C158.413 63.2203 157.84 63.7311 157.84 64.3193C157.84 64.9075 158.196 65.2171 159.032 65.3873L160.255 65.6505C161.4 65.8826 162.345 66.4708 162.345 67.833C162.345 69.257 161.122 70.1548 159.357 70.1548ZM165.709 60.8675H164.239V59.2887H165.709V60.8675ZM165.632 70H164.316V62.2606H165.632V70ZM169.32 70H168.005V62.2606H169.32V63.4215C169.769 62.6631 170.62 62.1058 171.874 62.1058C173.577 62.1058 174.629 63.1584 174.629 64.861V70H173.314V65.1706C173.314 63.9323 172.803 63.2203 171.658 63.2203H171.534C170.249 63.2203 169.32 64.2883 169.32 65.8207V70ZM180.049 70.1548C178.13 70.1548 176.474 68.8081 176.474 66.1148C176.474 63.4215 178.207 62.1058 180.018 62.1058C182 62.1058 183.253 63.5299 183.253 65.5421V66.316H177.789C177.851 68.2199 178.981 69.0403 180.034 69.0403H180.158C181.009 69.0403 181.721 68.6224 181.922 67.7401H183.238C182.944 69.288 181.644 70.1548 180.049 70.1548ZM177.851 65.248H181.938C181.876 63.9014 181.086 63.2203 180.08 63.2203H179.956C179.09 63.2203 178.115 63.7156 177.851 65.248ZM187.745 70.1548C185.717 70.1548 184.634 69.0868 184.603 67.6317H185.919C186.011 68.6069 186.77 69.0403 187.73 69.0403H187.869C188.767 69.0403 189.417 68.6069 189.417 67.9104C189.417 67.3841 189.123 67.0281 188.256 66.8578L187.126 66.6256C185.903 66.378 184.912 65.7743 184.912 64.4586C184.912 62.9262 186.275 62.1058 187.792 62.1058C189.788 62.1058 190.779 63.2358 190.81 64.6289H189.494C189.401 63.8859 188.89 63.2203 187.869 63.2203H187.73C186.801 63.2203 186.228 63.7311 186.228 64.3193C186.228 64.9075 186.584 65.2171 187.42 65.3873L188.643 65.6505C189.788 65.8826 190.732 66.4708 190.732 67.833C190.732 69.257 189.51 70.1548 187.745 70.1548ZM195.243 70.1548C193.215 70.1548 192.131 69.0868 192.1 67.6317H193.416C193.509 68.6069 194.267 69.0403 195.227 69.0403H195.366C196.264 69.0403 196.914 68.6069 196.914 67.9104C196.914 67.3841 196.62 67.0281 195.753 66.8578L194.623 66.6256C193.401 66.378 192.41 65.7743 192.41 64.4586C192.41 62.9262 193.772 62.1058 195.289 62.1058C197.286 62.1058 198.276 63.2358 198.307 64.6289H196.992C196.899 63.8859 196.388 63.2203 195.366 63.2203H195.227C194.298 63.2203 193.726 63.7311 193.726 64.3193C193.726 64.9075 194.082 65.2171 194.918 65.3873L196.14 65.6505C197.286 65.8826 198.23 66.4708 198.23 67.833C198.23 69.257 197.007 70.1548 195.243 70.1548ZM206.952 73.4053C204.769 73.4053 203.547 72.4147 203.392 71.0371H204.707C204.878 71.8729 205.744 72.2909 206.874 72.2909H207.029C208.345 72.2909 209.367 71.5788 209.367 69.8452V68.7153C208.949 69.4118 208.144 70 206.952 70C205.125 70 203.547 68.7153 203.547 66.0839C203.547 63.4525 205.094 62.1058 206.952 62.1058C208.144 62.1058 208.995 62.694 209.367 63.3906V62.2606H210.682V69.9845C210.682 71.9348 209.305 73.4053 206.952 73.4053ZM207.014 68.8855H207.138C208.314 68.8855 209.367 67.8639 209.367 66.0839C209.367 64.3038 208.376 63.2203 207.199 63.2203H207.06C205.868 63.2203 204.862 64.149 204.862 66.0839C204.862 68.0187 205.806 68.8855 207.014 68.8855ZM214.366 70H213.05V62.2606H214.289V63.9788C214.614 62.8024 215.558 62.1832 216.579 62.1832H217.276V63.437H216.657C215.233 63.437 214.366 64.4586 214.366 66.1303V70ZM221.665 70.1548C219.606 70.1548 218.012 68.5295 218.012 66.1303C218.012 63.7311 219.606 62.1058 221.665 62.1058C223.724 62.1058 225.334 63.7311 225.334 66.1303C225.334 68.5295 223.724 70.1548 221.665 70.1548ZM221.603 69.0403H221.743C223.043 69.0403 224.018 67.9723 224.018 66.1303C224.018 64.2883 223.043 63.2203 221.743 63.2203H221.603C220.303 63.2203 219.328 64.2883 219.328 66.1303C219.328 67.9723 220.303 69.0403 221.603 69.0403ZM234.445 68.6533L236.225 62.2606H237.587L235.173 70H233.64L231.922 63.7466L230.204 70H228.671L226.241 62.2606H227.619L229.476 68.6224L231.194 62.2606H232.65L234.445 68.6533ZM243.336 70H241.525C240.472 70 239.9 69.4582 239.9 68.4057V63.3906H238.166V62.2606H239.9V59.753H241.215V62.2606H243.104V63.3906H241.215V68.2199C241.215 68.6843 241.37 68.8391 241.834 68.8391H243.336V70ZM246.23 70H244.915V59.1649H246.23V63.4215C246.71 62.6476 247.546 62.1058 248.8 62.1058C250.565 62.1058 251.54 63.2203 251.54 64.8456V70H250.224V65.1551C250.224 63.9323 249.713 63.2203 248.568 63.2203H248.428C247.298 63.2203 246.23 64.1335 246.23 65.7124V70Z" fill="white"/>
</svg>
